Coordinates
version=1
nRows=23
nColumns=23
inDegrees=yes

Units are S.I. units (second, meters, Newtons, ...)
If the header above contains a line with 'inDegrees', this indicates whether rotational values are in degrees (yes) or radians (no).

endheader
time	pelvis_tilt	pelvis_list	pelvis_rotation	pelvis_tx	pelvis_ty	pelvis_tz	hip_flexion_r	hip_adduction_r	hip_rotation_r	knee_angle_r	knee_angle_r_beta	ankle_angle_r	subtalar_angle_r	mtp_angle_r	hip_flexion_l	hip_adduction_l	hip_rotation_l	knee_angle_l	knee_angle_l_beta	ankle_angle_l	subtalar_angle_l	mtp_angle_l
      7.50000000	    -15.07051595	     -2.76271240	     -3.33202695	      2.22859118	      0.95644138	      0.97616560	     38.67438892	      5.57410617	    -10.85468230	     19.16704331	      0.33452801	     16.74451517	      4.20666101	      0.00000000	     -8.19224070	     -4.15522589	     -5.71066495	     23.09386921	      0.40306405	    -11.14977137	      1.58011601	      0.00000000
      7.50666667	    -14.91624648	     -2.74036087	     -3.35131072	      2.22910993	      0.95429347	      0.97682171	     38.58845413	      5.62856640	    -11.27331617	     18.83826511	      0.32878975	     16.57056317	      3.89447302	      0.00000000	     -8.28795677	     -4.21589229	     -4.77510652	     24.88072543	      0.43425058	    -11.02907490	      1.46941126	      0.00000000
      7.51333333	    -14.66279944	     -2.80289154	     -3.36417194	      2.22957959	      0.95189007	      0.97728962	     38.46519186	      5.68841436	    -11.70159848	     19.02848702	      0.33210975	     16.15540612	      3.32043805	      0.00000000	     -8.32773991	     -4.36293575	     -3.95797583	     26.97699505	      0.47083739	    -10.83959488	      1.43767623	      0.00000000
      7.52000000	    -14.40744380	     -2.92266312	     -3.39166755	      2.22994280	      0.94911593	      0.97763475	     38.42109385	      5.74902887	    -12.06472822	     19.75562679	      0.34480073	     15.48930535	      2.55569661	      0.00000000	     -8.20603571	     -4.57252486	     -3.28248307	     29.36838138	      0.51257495	    -10.62981753	      1.49998099	      0.00000000
      7.52666667	    -14.34052960	     -2.93547903	     -3.55784478	      2.22998072	      0.94557516	      0.97806496	     38.73994111	      5.74686644	    -12.15779398	     21.11149799	      0.36846515	     14.54146820	      1.50448244	      0.00000000	     -7.66405885	     -4.73151523	     -3.01563020	     32.16124881	      0.56131968	    -10.36519510	      1.78920561	      0.00000000
      7.53333333	    -14.04123827	     -3.05799756	     -3.63253846	      2.23012773	      0.94211356	      0.97819561	     38.80662779	      5.75065256	    -12.21086021	     22.82045340	      0.39829205	     13.55039684	      0.46092466	      0.00000000	     -7.29849759	     -4.95281985	     -2.63979389	     35.00832090	      0.61101047	    -10.34557095	      1.73223759	      0.00000000
      7.54000000	    -13.49582262	     -3.25125061	     -3.76135690	      2.23033395	      0.93863782	      0.97835265	     38.61834434	      5.81537224	    -12.17353436	     24.85211472	      0.43375123	     12.58743668	     -0.58024753	      0.00000000	     -7.11481303	     -5.26150088	     -2.51145895	     37.97589468	      0.66280440	    -10.57074878	      1.46858139	      0.00000000
      7.54666667	    -13.82950363	     -2.99027068	     -4.13632043	      2.22962732	      0.93348865	      0.97889058	     39.63509293	      5.77367256	    -11.10406955	     27.44329779	      0.47897590	     11.58406102	     -2.43956832	      0.00000000	     -5.66179228	     -5.23200806	     -2.77273063	     41.43915574	      0.72324971	    -10.63952205	      1.55356603	      0.00000000
      7.55333333	    -13.65327743	     -3.00365714	     -4.39343550	      2.22926548	      0.92896547	      0.97924869	     39.97081211	      5.92749378	    -10.16408543	     30.01716995	      0.52389845	     10.86296951	     -4.21698267	      0.00000000	     -4.76119560	     -5.45403299	     -2.95146786	     44.79501682	      0.78182053	    -11.01603811	      1.10324114	      0.00000000
      7.56000000	    -13.36636578	     -3.19632562	     -4.57540701	      2.22891930	      0.92452504	      0.97960289	     40.12484415	      6.22314070	     -9.34639399	     32.61930390	      0.56931425	     10.51057679	     -5.82616999	      0.00000000	     -3.86809925	     -5.95788577	     -3.23780418	     48.25371479	      0.84218620	    -11.40781634	      0.69720990	      0.00000000
      7.56666667	    -13.17905696	     -3.22069875	     -4.90972033	      2.22825364	      0.91988496	      0.98026627	     40.41888577	      6.60566726	     -8.03804910	     35.32100183	      0.61646778	     10.57702033	     -7.74019064	      0.00000000	     -2.78769990	     -6.29446681	     -3.62731085	     51.70430151	      0.90241030	    -11.91595992	     -0.11335320	      0.00000000
      7.57333333	    -12.88495409	     -3.40111207	     -5.16252885	      2.22761258	      0.91550643	      0.98094884	     40.48938747	      7.09522547	     -6.96351988	     37.91072051	      0.66166689	     11.02098589	     -9.38788016	      0.00000000	     -1.74080288	     -6.85428939	     -3.98894847	     55.15205809	      0.96258500	    -12.33479698	     -0.91573231	      0.00000000
      7.58000000	    -12.59798628	     -3.60109037	     -5.41162787	      2.22685513	      0.91132261	      0.98172321	     40.46808819	      7.66416797	     -5.88505784	     40.36146604	      0.70444047	     11.85353954	    -10.89568264	      0.00000000	     -0.61004017	     -7.44294329	     -4.27980659	     58.54638147	      1.02182712	    -12.65243846	     -1.94753413	      0.00000000
      7.58666667	    -11.75714579	     -4.14027293	     -5.43549573	      2.22654669	      0.90831504	      0.98219398	     39.58144446	      8.27387396	     -5.45524320	     42.44942373	      0.74088221	     13.07269557	    -11.76377075	      0.00000000	     -0.08555116	     -8.37021669	     -4.40328861	     61.71435164	      1.07711863	    -12.87186389	     -2.98168399	      0.00000000
      7.59333333	    -11.95822402	     -4.20914135	     -5.68570645	      2.22523638	      0.90401966	      0.98319151	     39.88570693	      8.85759743	     -4.34040083	     44.53642536	      0.77730726	     14.24708242	    -13.12674654	      0.00000000	      1.82014041	     -8.86360900	     -4.46943852	     65.07183464	      1.13571776	    -12.80799682	     -4.03570074	      0.00000000
      7.60000000	    -11.33847282	     -4.54402489	     -5.70266803	      2.22449942	      0.90142534	      0.98377920	     38.99587029	      9.39315009	     -3.76333779	     46.19169940	      0.80619724	     15.79524681	    -13.88578708	      0.00000000	      2.78002522	     -9.49606752	     -4.30548557	     68.02561526	      1.18727096	    -12.63176950	     -5.15357763	      0.00000000
      7.60666667	    -11.61087612	     -4.34848316	     -5.82147293	      2.22301086	      0.89780682	      0.98456640	     39.12185833	      9.58961872	     -2.90955666	     47.87769421	      0.83562340	     17.20211859	    -14.73636541	      0.00000000	      4.94510030	     -9.58610423	     -4.04150361	     71.04448839	      1.23996024	    -12.30212584	     -6.31160910	      0.00000000
      7.61333333	    -11.14259637	     -4.62402794	     -5.71915616	      2.22210053	      0.89597960	      0.98503979	     38.05337566	     10.00402561	     -2.50130194	     48.93407632	      0.85406075	     18.70700567	    -15.22784098	      0.00000000	      6.24780023	    -10.09164867	     -3.61283911	     73.68557171	      1.28605584	    -11.85876336	     -7.33170787	      0.00000000
      7.62000000	    -11.44135517	     -4.48841455	     -5.56825591	      2.22065689	      0.89337810	      0.98543314	     37.84390271	     10.00824505	     -2.11420026	     49.99863974	      0.87264089	     20.10425738	    -15.61814283	      0.00000000	      8.60889412	    -10.11094814	     -2.95654528	     76.32382551	      1.33210205	    -11.28145684	     -8.31765781	      0.00000000
      7.62666667	    -11.41074789	     -4.49812182	     -5.37281858	      2.21949029	      0.89185895	      0.98573267	     37.02883236	     10.10120334	     -1.80432594	     50.65421065	      0.88408276	     21.45318915	    -15.89076210	      0.00000000	     10.57525588	    -10.21952170	     -2.29442813	     78.61694944	      1.37212462	    -10.68325450	     -9.20074263	      0.00000000
      7.63333333	    -11.06359973	     -4.54974154	     -5.21514227	      2.21849842	      0.89135862	      0.98605237	     35.67433221	     10.24552734	     -1.44554930	     50.97525503	      0.88968604	     22.71032482	    -16.18253904	      0.00000000	     12.14718480	    -10.34727985	     -1.75002225	     80.56834643	      1.40618292	    -10.00747651	     -9.94599198	      0.00000000
      7.64000000	    -11.47836102	     -4.43705483	     -4.85430591	      2.21720097	      0.89021367	      0.98596819	     35.12333734	     10.04022638	     -1.45312251	     51.20636855	      0.89371973	     23.77270915	    -16.13877257	      0.00000000	     14.75421054	    -10.19683784	     -0.87398787	     82.47925183	      1.43953451	     -9.33075850	    -10.53877543	      0.00000000
      7.64666667	    -11.19804582	     -4.34457895	     -4.76247295	      2.21623119	      0.89065884	      0.98621607	     33.59196461	     10.05088375	     -1.02749528	     51.06376662	      0.89123086	     24.58234179	    -16.20892128	      0.00000000	     16.37973887	    -10.08736693	     -0.44306862	     83.86648974	      1.46374638	     -8.74512207	    -11.01018004	      0.00000000
